<mxfile host="app.diagrams.net" modified="2023-02-13T14:06:26.828Z" agent="5.0 (Macintosh; Intel Mac OS X 10_15_7) AppleWebKit/537.36 (KHTML, like Gecko) Chrome/109.0.0.0 Safari/537.36" etag="pKx_Kbt6-oJnfR3uleoa" version="20.8.20" type="github">
  <diagram name="Page-1" id="Uy1ApQYzt9IStjCKyEoG">
    <mxGraphModel dx="2522" dy="1358" grid="1" gridSize="10" guides="1" tooltips="1" connect="1" arrows="1" fold="1" page="1" pageScale="1" pageWidth="850" pageHeight="1100" math="0" shadow="0">
      <root>
        <mxCell id="0" />
        <mxCell id="1" parent="0" />
        <mxCell id="i-E6UqDkk-qlMkUUwxmW-5" value="AWS Account" style="points=[[0,0],[0.25,0],[0.5,0],[0.75,0],[1,0],[1,0.25],[1,0.5],[1,0.75],[1,1],[0.75,1],[0.5,1],[0.25,1],[0,1],[0,0.75],[0,0.5],[0,0.25]];outlineConnect=0;gradientColor=none;html=1;whiteSpace=wrap;fontSize=12;fontStyle=0;container=1;pointerEvents=0;collapsible=0;recursiveResize=0;shape=mxgraph.aws4.group;grIcon=mxgraph.aws4.group_account;strokeColor=#CD2264;fillColor=none;verticalAlign=top;align=left;spacingLeft=30;fontColor=#CD2264;dashed=0;" vertex="1" parent="1">
          <mxGeometry x="40" y="40" width="920" height="660" as="geometry" />
        </mxCell>
        <mxCell id="i-E6UqDkk-qlMkUUwxmW-25" value="" style="endArrow=classic;html=1;rounded=0;" edge="1" parent="i-E6UqDkk-qlMkUUwxmW-5" source="i-E6UqDkk-qlMkUUwxmW-9" target="i-E6UqDkk-qlMkUUwxmW-2">
          <mxGeometry width="50" height="50" relative="1" as="geometry">
            <mxPoint x="360" y="540" as="sourcePoint" />
            <mxPoint x="410" y="490" as="targetPoint" />
          </mxGeometry>
        </mxCell>
        <mxCell id="i-E6UqDkk-qlMkUUwxmW-4" value="Primary Region" style="points=[[0,0],[0.25,0],[0.5,0],[0.75,0],[1,0],[1,0.25],[1,0.5],[1,0.75],[1,1],[0.75,1],[0.5,1],[0.25,1],[0,1],[0,0.75],[0,0.5],[0,0.25]];outlineConnect=0;gradientColor=none;html=1;whiteSpace=wrap;fontSize=12;fontStyle=0;container=1;pointerEvents=0;collapsible=0;recursiveResize=0;shape=mxgraph.aws4.group;grIcon=mxgraph.aws4.group_region;strokeColor=#147EBA;fillColor=none;verticalAlign=top;align=left;spacingLeft=30;fontColor=#147EBA;dashed=1;" vertex="1" parent="i-E6UqDkk-qlMkUUwxmW-5">
          <mxGeometry x="40" y="440" width="400" height="180" as="geometry" />
        </mxCell>
        <mxCell id="i-E6UqDkk-qlMkUUwxmW-17" value="" style="group" vertex="1" connectable="0" parent="i-E6UqDkk-qlMkUUwxmW-4">
          <mxGeometry x="140" y="60" width="120" height="80" as="geometry" />
        </mxCell>
        <mxCell id="i-E6UqDkk-qlMkUUwxmW-1" value="" style="group;aspect=fixed;" vertex="1" connectable="0" parent="i-E6UqDkk-qlMkUUwxmW-17">
          <mxGeometry x="40.77000000000001" width="38.46" height="40" as="geometry" />
        </mxCell>
        <mxCell id="i-E6UqDkk-qlMkUUwxmW-2" value="" style="sketch=0;outlineConnect=0;fontColor=#232F3E;gradientColor=none;fillColor=#CC99FF;strokeColor=none;dashed=0;verticalLabelPosition=bottom;verticalAlign=top;align=center;html=1;fontSize=12;fontStyle=0;aspect=fixed;pointerEvents=1;shape=mxgraph.aws4.bucket;" vertex="1" parent="i-E6UqDkk-qlMkUUwxmW-1">
          <mxGeometry width="38.46" height="39.998400000000004" as="geometry" />
        </mxCell>
        <mxCell id="i-E6UqDkk-qlMkUUwxmW-3" value="" style="shape=image;verticalLabelPosition=bottom;labelBackgroundColor=default;verticalAlign=top;aspect=fixed;imageAspect=0;image=data:image/svg+xml,PHN2ZyB4bWxucz0iaHR0cDovL3d3dy53My5vcmcvMjAwMC9zdmciIGZpbGw9Im5vbmUiIHZpZXdCb3g9IjAgMCA2NCA2NCIgaGVpZ2h0PSI4MDBweCIgd2lkdGg9IjgwMHB4Ij48cGF0aCBmaWxsPSIjNDA0MEIyIiBkPSJNMzguMDYgMjYuMTUxdjExLjQ3M0w0OCAzMS44OTFWMjAuNDA2bC05Ljk0IDUuNzQ1eiIvPjxwYXRoIGZpbGw9IiM1QzRFRTUiIGQ9Im0yNy4wMyAyMC40MDYgOS45NCA1Ljc0NXYxMS40NzNsLTkuOTQtNS43NFYyMC40MDd6TTE2IDE0djExLjQ3OWw5Ljk0IDUuNzR2LTExLjQ4TDE2IDE0em0xMS4wMyAzMC42MjQgOS45NCA1Ljc0di0xMS40OGwtOS45NC01LjczOXYxMS40OHoiLz48L3N2Zz4=;clipPath=inset(21.33% 25% 21% 24.67%);imageBackground=none;" vertex="1" parent="i-E6UqDkk-qlMkUUwxmW-1">
          <mxGeometry width="17.901848" height="20.512" as="geometry" />
        </mxCell>
        <mxCell id="i-E6UqDkk-qlMkUUwxmW-16" value="S3 bucket containing static website files" style="text;html=1;strokeColor=none;fillColor=none;align=center;verticalAlign=middle;whiteSpace=wrap;rounded=0;" vertex="1" parent="i-E6UqDkk-qlMkUUwxmW-17">
          <mxGeometry y="50" width="120" height="30" as="geometry" />
        </mxCell>
        <mxCell id="i-E6UqDkk-qlMkUUwxmW-19" value="Secondary Region" style="points=[[0,0],[0.25,0],[0.5,0],[0.75,0],[1,0],[1,0.25],[1,0.5],[1,0.75],[1,1],[0.75,1],[0.5,1],[0.25,1],[0,1],[0,0.75],[0,0.5],[0,0.25]];outlineConnect=0;gradientColor=none;html=1;whiteSpace=wrap;fontSize=12;fontStyle=0;container=1;pointerEvents=0;collapsible=0;recursiveResize=0;shape=mxgraph.aws4.group;grIcon=mxgraph.aws4.group_region;strokeColor=#147EBA;fillColor=none;verticalAlign=top;align=left;spacingLeft=30;fontColor=#147EBA;dashed=1;" vertex="1" parent="i-E6UqDkk-qlMkUUwxmW-5">
          <mxGeometry x="480" y="440" width="400" height="180" as="geometry" />
        </mxCell>
        <mxCell id="i-E6UqDkk-qlMkUUwxmW-20" value="" style="group" vertex="1" connectable="0" parent="i-E6UqDkk-qlMkUUwxmW-19">
          <mxGeometry x="140" y="60" width="120" height="80" as="geometry" />
        </mxCell>
        <mxCell id="i-E6UqDkk-qlMkUUwxmW-21" value="" style="group;aspect=fixed;" vertex="1" connectable="0" parent="i-E6UqDkk-qlMkUUwxmW-20">
          <mxGeometry x="40.77000000000001" width="38.46" height="40" as="geometry" />
        </mxCell>
        <mxCell id="i-E6UqDkk-qlMkUUwxmW-22" value="" style="sketch=0;outlineConnect=0;fontColor=#232F3E;gradientColor=none;fillColor=#CC99FF;strokeColor=none;dashed=0;verticalLabelPosition=bottom;verticalAlign=top;align=center;html=1;fontSize=12;fontStyle=0;aspect=fixed;pointerEvents=1;shape=mxgraph.aws4.bucket;" vertex="1" parent="i-E6UqDkk-qlMkUUwxmW-21">
          <mxGeometry width="38.46" height="39.998400000000004" as="geometry" />
        </mxCell>
        <mxCell id="i-E6UqDkk-qlMkUUwxmW-23" value="" style="shape=image;verticalLabelPosition=bottom;labelBackgroundColor=default;verticalAlign=top;aspect=fixed;imageAspect=0;image=data:image/svg+xml,PHN2ZyB4bWxucz0iaHR0cDovL3d3dy53My5vcmcvMjAwMC9zdmciIGZpbGw9Im5vbmUiIHZpZXdCb3g9IjAgMCA2NCA2NCIgaGVpZ2h0PSI4MDBweCIgd2lkdGg9IjgwMHB4Ij48cGF0aCBmaWxsPSIjNDA0MEIyIiBkPSJNMzguMDYgMjYuMTUxdjExLjQ3M0w0OCAzMS44OTFWMjAuNDA2bC05Ljk0IDUuNzQ1eiIvPjxwYXRoIGZpbGw9IiM1QzRFRTUiIGQ9Im0yNy4wMyAyMC40MDYgOS45NCA1Ljc0NXYxMS40NzNsLTkuOTQtNS43NFYyMC40MDd6TTE2IDE0djExLjQ3OWw5Ljk0IDUuNzR2LTExLjQ4TDE2IDE0em0xMS4wMyAzMC42MjQgOS45NCA1Ljc0di0xMS40OGwtOS45NC01LjczOXYxMS40OHoiLz48L3N2Zz4=;clipPath=inset(21.33% 25% 21% 24.67%);imageBackground=none;" vertex="1" parent="i-E6UqDkk-qlMkUUwxmW-21">
          <mxGeometry width="17.901848" height="20.512" as="geometry" />
        </mxCell>
        <mxCell id="i-E6UqDkk-qlMkUUwxmW-24" value="S3 bucket containing static website files" style="text;html=1;strokeColor=none;fillColor=none;align=center;verticalAlign=middle;whiteSpace=wrap;rounded=0;" vertex="1" parent="i-E6UqDkk-qlMkUUwxmW-20">
          <mxGeometry y="50" width="120" height="30" as="geometry" />
        </mxCell>
        <mxCell id="i-E6UqDkk-qlMkUUwxmW-26" value="" style="endArrow=classic;html=1;rounded=0;exitX=0.75;exitY=1;exitDx=0;exitDy=0;exitPerimeter=0;startArrow=none;" edge="1" parent="i-E6UqDkk-qlMkUUwxmW-5" source="i-E6UqDkk-qlMkUUwxmW-9" target="i-E6UqDkk-qlMkUUwxmW-22">
          <mxGeometry width="50" height="50" relative="1" as="geometry">
            <mxPoint x="369.7966775577688" y="312.55999999999995" as="sourcePoint" />
            <mxPoint x="245" y="510" as="targetPoint" />
          </mxGeometry>
        </mxCell>
        <mxCell id="i-E6UqDkk-qlMkUUwxmW-14" value="AWS Edge Locations" style="points=[[0,0],[0.25,0],[0.5,0],[0.75,0],[1,0],[1,0.25],[1,0.5],[1,0.75],[1,1],[0.75,1],[0.5,1],[0.25,1],[0,1],[0,0.75],[0,0.5],[0,0.25]];outlineConnect=0;gradientColor=none;html=1;whiteSpace=wrap;fontSize=12;fontStyle=0;container=1;pointerEvents=0;collapsible=0;recursiveResize=0;shape=mxgraph.aws4.group;grIcon=mxgraph.aws4.group_region;strokeColor=#147EBA;fillColor=none;verticalAlign=top;align=left;spacingLeft=30;fontColor=#147EBA;dashed=1;" vertex="1" parent="i-E6UqDkk-qlMkUUwxmW-5">
          <mxGeometry x="40" y="60" width="840" height="340" as="geometry" />
        </mxCell>
        <mxCell id="i-E6UqDkk-qlMkUUwxmW-9" value="CloudFront Content&lt;br&gt;Delivery Network (CDN)" style="sketch=0;points=[[0,0,0],[0.25,0,0],[0.5,0,0],[0.75,0,0],[1,0,0],[0,1,0],[0.25,1,0],[0.5,1,0],[0.75,1,0],[1,1,0],[0,0.25,0],[0,0.5,0],[0,0.75,0],[1,0.25,0],[1,0.5,0],[1,0.75,0]];outlineConnect=0;fontColor=#232F3E;gradientColor=#945DF2;gradientDirection=north;fillColor=#5A30B5;strokeColor=#ffffff;dashed=0;verticalLabelPosition=bottom;verticalAlign=top;align=center;html=1;fontSize=12;fontStyle=0;aspect=fixed;shape=mxgraph.aws4.resourceIcon;resIcon=mxgraph.aws4.cloudfront;" vertex="1" parent="i-E6UqDkk-qlMkUUwxmW-14">
          <mxGeometry x="78.46000000000004" y="60" width="40" height="40" as="geometry" />
        </mxCell>
        <mxCell id="i-E6UqDkk-qlMkUUwxmW-13" value="AWS Lambda@Edge&lt;br&gt;Serverless Functions" style="sketch=0;points=[[0,0,0],[0.25,0,0],[0.5,0,0],[0.75,0,0],[1,0,0],[0,1,0],[0.25,1,0],[0.5,1,0],[0.75,1,0],[1,1,0],[0,0.25,0],[0,0.5,0],[0,0.75,0],[1,0.25,0],[1,0.5,0],[1,0.75,0]];outlineConnect=0;fontColor=#232F3E;gradientColor=#F78E04;gradientDirection=north;fillColor=#D05C17;strokeColor=#ffffff;dashed=0;verticalLabelPosition=bottom;verticalAlign=top;align=center;html=1;fontSize=12;fontStyle=0;aspect=fixed;shape=mxgraph.aws4.resourceIcon;resIcon=mxgraph.aws4.lambda;" vertex="1" parent="i-E6UqDkk-qlMkUUwxmW-14">
          <mxGeometry x="240" y="60" width="40" height="40" as="geometry" />
        </mxCell>
        <mxCell id="i-E6UqDkk-qlMkUUwxmW-11" value="Amazon Certification&lt;br&gt;Manager (SSL Certificates)" style="sketch=0;points=[[0,0,0],[0.25,0,0],[0.5,0,0],[0.75,0,0],[1,0,0],[0,1,0],[0.25,1,0],[0.5,1,0],[0.75,1,0],[1,1,0],[0,0.25,0],[0,0.5,0],[0,0.75,0],[1,0.25,0],[1,0.5,0],[1,0.75,0]];outlineConnect=0;fontColor=#232F3E;gradientColor=#F54749;gradientDirection=north;fillColor=#C7131F;strokeColor=#ffffff;dashed=0;verticalLabelPosition=bottom;verticalAlign=top;align=center;html=1;fontSize=12;fontStyle=0;aspect=fixed;shape=mxgraph.aws4.resourceIcon;resIcon=mxgraph.aws4.cognito;" vertex="1" parent="i-E6UqDkk-qlMkUUwxmW-14">
          <mxGeometry x="400" y="60" width="40" height="40" as="geometry" />
        </mxCell>
        <mxCell id="i-E6UqDkk-qlMkUUwxmW-15" value="Route53 DNS" style="sketch=0;points=[[0,0,0],[0.25,0,0],[0.5,0,0],[0.75,0,0],[1,0,0],[0,1,0],[0.25,1,0],[0.5,1,0],[0.75,1,0],[1,1,0],[0,0.25,0],[0,0.5,0],[0,0.75,0],[1,0.25,0],[1,0.5,0],[1,0.75,0]];outlineConnect=0;fontColor=#232F3E;gradientColor=#945DF2;gradientDirection=north;fillColor=#5A30B5;strokeColor=#ffffff;dashed=0;verticalLabelPosition=bottom;verticalAlign=top;align=center;html=1;fontSize=12;fontStyle=0;aspect=fixed;shape=mxgraph.aws4.resourceIcon;resIcon=mxgraph.aws4.route_53;" vertex="1" parent="i-E6UqDkk-qlMkUUwxmW-14">
          <mxGeometry x="560" y="60" width="40" height="40" as="geometry" />
        </mxCell>
        <mxCell id="i-E6UqDkk-qlMkUUwxmW-10" value="AW Shield Web&lt;br&gt;Application Firewall" style="sketch=0;points=[[0,0,0],[0.25,0,0],[0.5,0,0],[0.75,0,0],[1,0,0],[0,1,0],[0.25,1,0],[0.5,1,0],[0.75,1,0],[1,1,0],[0,0.25,0],[0,0.5,0],[0,0.75,0],[1,0.25,0],[1,0.5,0],[1,0.75,0]];outlineConnect=0;fontColor=#232F3E;gradientColor=#F54749;gradientDirection=north;fillColor=#C7131F;strokeColor=#ffffff;dashed=0;verticalLabelPosition=bottom;verticalAlign=top;align=center;html=1;fontSize=12;fontStyle=0;aspect=fixed;shape=mxgraph.aws4.resourceIcon;resIcon=mxgraph.aws4.shield;" vertex="1" parent="i-E6UqDkk-qlMkUUwxmW-14">
          <mxGeometry x="720" y="60" width="40" height="40" as="geometry" />
        </mxCell>
        <mxCell id="i-E6UqDkk-qlMkUUwxmW-30" value="IAM Role to&lt;br&gt;secure access" style="sketch=0;outlineConnect=0;fontColor=#232F3E;gradientColor=none;fillColor=#BF0816;strokeColor=none;dashed=0;verticalLabelPosition=bottom;verticalAlign=top;align=center;html=1;fontSize=12;fontStyle=0;aspect=fixed;pointerEvents=1;shape=mxgraph.aws4.role;" vertex="1" parent="i-E6UqDkk-qlMkUUwxmW-14">
          <mxGeometry x="118.46000000000001" y="230" width="40" height="22.56" as="geometry" />
        </mxCell>
        <mxCell id="i-E6UqDkk-qlMkUUwxmW-31" value="IAM Role to&lt;br&gt;secure access" style="sketch=0;outlineConnect=0;fontColor=#232F3E;gradientColor=none;fillColor=#BF0816;strokeColor=none;dashed=0;verticalLabelPosition=bottom;verticalAlign=top;align=center;html=1;fontSize=12;fontStyle=0;aspect=fixed;pointerEvents=1;shape=mxgraph.aws4.role;" vertex="1" parent="i-E6UqDkk-qlMkUUwxmW-14">
          <mxGeometry x="294" y="230" width="40" height="22.56" as="geometry" />
        </mxCell>
      </root>
    </mxGraphModel>
  </diagram>
</mxfile>
